<?xml version="1.0" encoding="UTF-8"?>
<svg width="1200pt" height="1200pt" version="1.1" viewBox="0 0 1200 1200" xmlns="http://www.w3.org/2000/svg">
 <path d="m1.1133 332.82c146.81-20.492 297.11-6.0977 422.93 80.758-84.035-69.258 1.7852-120.38-53.363-236.72 105.05 47.719 195.11 122.05 178.89 253.04l0.73828 54.27-34.473-71.555 21.922 81.172c-33.594-14.18-64.098-46.117-94.715-66.293 76.918 59.531 108.96 120.66 148.9 204.97-61.488-39.934-288.42-212.8-69.285-76.406-124.65-200.74-358.3-209.25-446.42-204.67 173.5 148.81 19.355 362.59 455.44 297.55-309-311-120.34-158.36 56.324 18.164-564.99 95.109-307.21-157.9-586.88-334.28zm1e3 867.18c-257.71-88.09-397.16-253.93-387.86-535.52 41.891 71.512 168.25 348.54 26.844 100.96 20.066 234.12 222.96 348.01 303 384.07-86.176-211.7 148.83-331.33-268.74-473.14 141.01 445.34 38.871 213.62-41.492-41.762l-12.152 7.8984c1.2617-46.16 52.34-412.74 38.047-242.26-2.9492 35.238-7.3867 141.52-9.375 191.18 365.37-246.91 107.22-300.29 134.42-527.2-67.969 56.141-234.14 220.13-190.62 452.04 62.453-228.78 23.043 17.512 0.65234 103.39-83.668-270.16 6.9219-465.68 232.76-619.67-83.34 306.6 257.1 342.12-193.68 634.59 535.49 171.05 202.77 284.61 368.19 565.41zm197.75-687.77c-130.41 167.74-266.78 222.07-473.39 144.11 59.699-12.648 338.54-33.254 110.85 6.7773 142.15 23.668 250.98-66.977 296.01-113.09-158.11 0.59375-182.73-166.48-363.57 65.047 402.65 8.0703 155.05 33.453-52.824 25.41 246.94-333.9 235.07-76.703 482.93-128.25zm-696.84-82.957c-11.457-51.703-64.027-217.19 18.891-60.977-13.57-69.742-66.367-114.1-99.703-135.75 13.344 93.324-64.977 127.26 80.816 196.73z" fill="#00449e"/>
</svg>
